<svg width="31" height="32" viewBox="0 0 31 32" fill="none" xmlns="http://www.w3.org/2000/svg">
<path d="M23.7202 23.152L15.5 31.6373L7.27984 23.152C5.65407 21.4737 4.54691 19.3355 4.09837 17.0078C3.64982 14.68 3.88005 12.2672 4.75992 10.0745C5.63979 7.88181 7.1298 6.00767 9.04152 4.6891C10.9532 3.37053 13.2008 2.66675 15.5 2.66675C17.7992 2.66675 20.0468 3.37053 21.9585 4.6891C23.8702 6.00767 25.3602 7.88181 26.2401 10.0745C27.12 12.2672 27.3502 14.68 26.9016 17.0078C26.4531 19.3355 25.3459 21.4737 23.7202 23.152ZM15.5 20C16.8703 20 18.1845 19.4381 19.1534 18.4379C20.1223 17.4377 20.6667 16.0811 20.6667 14.6666C20.6667 13.2522 20.1223 11.8956 19.1534 10.8954C18.1845 9.89521 16.8703 9.33331 15.5 9.33331C14.1297 9.33331 12.8156 9.89521 11.8466 10.8954C10.8777 11.8956 10.3333 13.2522 10.3333 14.6666C10.3333 16.0811 10.8777 17.4377 11.8466 18.4379C12.8156 19.4381 14.1297 20 15.5 20ZM15.5 17.3333C14.8149 17.3333 14.1578 17.0524 13.6733 16.5523C13.1888 16.0522 12.9167 15.3739 12.9167 14.6666C12.9167 13.9594 13.1888 13.2811 13.6733 12.781C14.1578 12.2809 14.8149 12 15.5 12C16.1851 12 16.8422 12.2809 17.3267 12.781C17.8112 13.2811 18.0833 13.9594 18.0833 14.6666C18.0833 15.3739 17.8112 16.0522 17.3267 16.5523C16.8422 17.0524 16.1851 17.3333 15.5 17.3333Z" fill="#F15A23"/>
</svg>
