<svg width="39" height="32" viewBox="0 0 39 32" fill="none" xmlns="http://www.w3.org/2000/svg">
<path fill-rule="evenodd" clip-rule="evenodd" d="M33.5531 0.874253C33.9686 0.624333 34.4647 0.545069 34.9374 0.653094C35.41 0.76112 35.8225 1.04804 36.0881 1.45363L37.9444 4.28488C38.1864 4.65474 38.2899 5.0982 38.2367 5.53698C38.1835 5.97576 37.9771 6.38165 37.6537 6.683L37.6481 6.6905L37.6219 6.71488L37.515 6.81425L37.0931 7.21738C34.7587 9.48162 32.4951 11.8177 30.3056 14.2224C26.1862 18.7524 21.2944 24.6811 18.0019 30.4336C17.0831 32.0386 14.8387 32.3836 13.5075 30.998L1.34812 18.3643C1.17387 18.1831 1.03781 17.9688 0.948028 17.7341C0.858247 17.4993 0.816579 17.2489 0.825499 16.9977C0.83442 16.7466 0.893747 16.4998 0.999956 16.272C1.10616 16.0442 1.25708 15.8401 1.44375 15.6718L5.11875 12.3568C5.4417 12.0656 5.85581 11.8957 6.2902 11.8762C6.7246 11.8567 7.15226 11.9888 7.5 12.2499L13.7044 16.9018C23.3962 7.34488 28.8919 3.67738 33.5531 0.874253Z" fill="#00A2B7"/>
</svg>
