<svg width="31" height="32" viewBox="0 0 31 32" fill="none" xmlns="http://www.w3.org/2000/svg">
<path fill-rule="evenodd" clip-rule="evenodd" d="M9.04167 9.33328C9.04192 8.07191 9.38883 6.83649 10.0421 5.77051C10.6954 4.70453 11.6282 3.85174 12.7323 3.31118C13.8364 2.77062 15.0663 2.56448 16.2793 2.71669C17.4924 2.8689 18.6387 3.37323 19.5851 4.17109C20.5316 4.96895 21.2393 6.02761 21.6262 7.22411C22.013 8.4206 22.0631 9.70584 21.7706 10.9305C21.478 12.1552 20.8549 13.2691 19.9736 14.1429C19.0923 15.0166 17.9889 15.6143 16.7917 15.8666V22.6666C16.7917 23.0202 16.6556 23.3594 16.4133 23.6094C16.1711 23.8595 15.8426 23.9999 15.5 23.9999C15.1574 23.9999 14.8289 23.8595 14.5867 23.6094C14.3444 23.3594 14.2083 23.0202 14.2083 22.6666V15.8666C12.7498 15.5588 11.439 14.7404 10.4976 13.55C9.55613 12.3595 9.04185 10.87 9.04167 9.33328ZM12.2566 21.4666C12.2823 21.6398 12.2747 21.8165 12.2342 21.9866C12.1937 22.1568 12.1211 22.317 12.0206 22.4582C11.9201 22.5993 11.7936 22.7187 11.6483 22.8093C11.5031 22.9 11.342 22.9602 11.1742 22.9866C9.52346 23.2466 8.21242 23.6386 7.35087 24.0733C6.91817 24.2919 6.66112 24.4906 6.52808 24.6359C6.51882 24.646 6.50977 24.6562 6.50096 24.6666C6.54358 24.7186 6.61721 24.7946 6.74638 24.8919C7.10804 25.1679 7.71383 25.4719 8.57796 25.7506C10.292 26.3039 12.7397 26.6666 15.5 26.6666C18.2603 26.6666 20.708 26.3039 22.422 25.7506C23.2875 25.4719 23.892 25.1679 24.2536 24.8919C24.3828 24.7946 24.4564 24.7186 24.499 24.6666C24.4902 24.6562 24.4812 24.6459 24.4719 24.6359C24.3389 24.4906 24.0818 24.2919 23.6491 24.0733C22.7876 23.6386 21.4765 23.2466 19.8258 22.9866C19.6562 22.9626 19.4928 22.904 19.3453 22.8142C19.1978 22.7244 19.0691 22.6053 18.9666 22.4637C18.8641 22.3221 18.7899 22.1609 18.7484 21.9894C18.7068 21.818 18.6986 21.6397 18.7244 21.465C18.7502 21.2902 18.8093 21.1225 18.8985 20.9716C18.9876 20.8207 19.1049 20.6896 19.2436 20.5859C19.3822 20.4822 19.5395 20.408 19.7062 20.3676C19.8729 20.3272 20.0457 20.3214 20.2146 20.3506C22.0074 20.6306 23.6013 21.0799 24.7858 21.6786C25.3761 21.9773 25.9276 22.3453 26.3461 22.8013C26.7724 23.2639 27.125 23.8946 27.125 24.6666C27.125 25.7479 26.4482 26.5333 25.7894 27.0359C25.1048 27.5586 24.1968 27.9719 23.1932 28.2959C21.1652 28.9493 18.4476 29.3333 15.5 29.3333C12.5524 29.3333 9.83346 28.9493 7.80813 28.2959C6.80321 27.9719 5.89646 27.5586 5.21187 27.0359C4.55183 26.5333 3.875 25.7479 3.875 24.6666C3.875 23.8933 4.22762 23.2639 4.65387 22.7999C5.07367 22.3439 5.62392 21.9773 6.21421 21.6799C7.39867 21.0799 8.99387 20.6319 10.7841 20.3506C10.9519 20.3241 11.1231 20.332 11.2879 20.3738C11.4527 20.4156 11.6079 20.4905 11.7447 20.5943C11.8814 20.698 11.997 20.8286 12.0849 20.9785C12.1727 21.1284 12.2311 21.2934 12.2566 21.4666Z" fill="#F15A23"/>
</svg>
