<svg width="40" height="40" viewBox="0 0 40 40" fill="none" xmlns="http://www.w3.org/2000/svg">
<path d="M12.55 10.8834C12.7708 10.6464 12.891 10.333 12.8853 10.0092C12.8796 9.68536 12.7484 9.37639 12.5194 9.14737C12.2903 8.91834 11.9814 8.78716 11.6575 8.78144C11.3337 8.77573 11.0203 8.89594 10.7833 9.11674L7.45 12.4501C7.21592 12.6844 7.08443 13.0022 7.08443 13.3334C7.08443 13.6647 7.21592 13.9824 7.45 14.2167L10.7833 17.5501C10.8978 17.6729 11.0358 17.7714 11.1891 17.8397C11.3424 17.908 11.508 17.9448 11.6758 17.9477C11.8436 17.9507 12.0104 17.9198 12.166 17.8569C12.3216 17.7941 12.463 17.7005 12.5817 17.5818C12.7004 17.4631 12.794 17.3217 12.8569 17.1661C12.9197 17.0104 12.9506 16.8437 12.9477 16.6759C12.9447 16.508 12.908 16.3425 12.8396 16.1892C12.7713 16.0358 12.6728 15.8978 12.55 15.7834L11.35 14.5834H28.3333C28.6649 14.5834 28.9828 14.4517 29.2172 14.2173C29.4516 13.9829 29.5833 13.6649 29.5833 13.3334C29.5833 13.0019 29.4516 12.6839 29.2172 12.4495C28.9828 12.2151 28.6649 12.0834 28.3333 12.0834H11.35L12.55 10.8834ZM27.45 22.4501C27.2159 22.6844 27.0844 23.0022 27.0844 23.3334C27.0844 23.6647 27.2159 23.9824 27.45 24.2167L28.65 25.4167H11.6667C11.3351 25.4167 11.0172 25.5484 10.7828 25.7829C10.5484 26.0173 10.4167 26.3352 10.4167 26.6667C10.4167 26.9983 10.5484 27.3162 10.7828 27.5506C11.0172 27.785 11.3351 27.9167 11.6667 27.9167H28.65L27.45 29.1167C27.3272 29.2312 27.2287 29.3692 27.1604 29.5225C27.092 29.6758 27.0553 29.8414 27.0523 30.0092C27.0494 30.177 27.0803 30.3438 27.1431 30.4994C27.206 30.655 27.2996 30.7964 27.4183 30.9151C27.537 31.0338 27.6784 31.1274 27.834 31.1903C27.9897 31.2531 28.1564 31.284 28.3242 31.2811C28.492 31.2781 28.6576 31.2414 28.8109 31.173C28.9642 31.1047 29.1022 31.0062 29.2167 30.8834L32.55 27.5501C32.7841 27.3157 32.9156 26.998 32.9156 26.6667C32.9156 26.3355 32.7841 26.0178 32.55 25.7834L29.2167 22.4501C28.9823 22.216 28.6646 22.0845 28.3333 22.0845C28.0021 22.0845 27.6844 22.216 27.45 22.4501Z" fill="#005E6A"/>
</svg>
