<svg width="35" height="35" viewBox="0 0 35 35" fill="none" xmlns="http://www.w3.org/2000/svg">
<path d="M22.9688 17.5C21.5633 17.5 20.2043 16.8725 19.1406 15.7336C18.1064 14.6228 17.4747 13.1414 17.3633 11.5637C17.2443 9.88066 17.7577 8.33301 18.8084 7.20508C19.8591 6.07715 21.3281 5.46875 22.9688 5.46875C24.5978 5.46875 26.0709 6.08809 27.1182 7.21328C28.1757 8.34941 28.6904 9.89434 28.5715 11.563C28.4573 13.1428 27.8264 14.6234 26.7942 15.7329C25.7332 16.8725 24.3749 17.5 22.9688 17.5ZM31.9806 29.5312H13.9576C13.6679 29.5328 13.3816 29.4678 13.1209 29.3414C12.8602 29.2149 12.6319 29.0304 12.4537 28.8019C12.2647 28.5541 12.1342 28.2669 12.0719 27.9616C12.0096 27.6563 12.0173 27.3408 12.0942 27.0389C12.6697 24.7276 14.0957 22.8108 16.2176 21.4963C18.1009 20.3301 20.4983 19.6875 22.9688 19.6875C25.4878 19.6875 27.8223 20.3027 29.7165 21.4683C31.8432 22.776 33.2712 24.7037 33.8441 27.043C33.92 27.3451 33.9268 27.6606 33.8638 27.9657C33.8008 28.2709 33.6698 28.5579 33.4804 28.8053C33.3024 29.0327 33.0747 29.2164 32.8147 29.3422C32.5547 29.4681 32.2694 29.5327 31.9806 29.5312ZM10.0488 17.7734C7.64328 17.7734 5.52824 15.5367 5.33205 12.788C5.23497 11.3798 5.67384 10.0775 6.56251 9.12256C7.44162 8.17715 8.68165 7.65625 10.0488 7.65625C11.416 7.65625 12.6465 8.17988 13.5304 9.13076C14.4259 10.0933 14.8634 11.3928 14.7609 12.7894C14.5647 15.5374 12.4503 17.7734 10.0488 17.7734ZM14.5373 19.9233C13.3349 19.3355 11.7742 19.0415 10.0495 19.0415C8.03566 19.0415 6.0799 19.5665 4.54181 20.5194C2.79796 21.6016 1.62492 23.1772 1.15119 25.0797C1.08186 25.3533 1.0753 25.6391 1.132 25.9156C1.18871 26.1922 1.3072 26.4523 1.47863 26.6766C1.64129 26.8854 1.84967 27.0541 2.08775 27.1698C2.32584 27.2854 2.58728 27.345 2.85197 27.3438H10.4399C10.5679 27.3437 10.6919 27.2988 10.7902 27.2167C10.8886 27.1346 10.955 27.0206 10.9778 26.8946C10.9854 26.8516 10.9949 26.8085 11.0059 26.7661C11.5856 24.4378 12.9439 22.4704 14.9509 21.0362C15.0247 20.983 15.0841 20.9122 15.1236 20.8303C15.1632 20.7483 15.1817 20.6578 15.1774 20.5669C15.1731 20.476 15.1462 20.3876 15.0991 20.3097C15.0521 20.2318 14.9863 20.1669 14.9078 20.1209C14.8005 20.058 14.6775 19.9917 14.5373 19.9233Z" fill="#F15A23"/>
</svg>
