<svg width="25" height="25" viewBox="0 0 25 25" fill="none" xmlns="http://www.w3.org/2000/svg">
<path d="M1.04175 12.5002C1.04175 12.5002 5.40425 6.25016 12.5001 6.25016C13.4865 6.25016 14.4157 6.3762 15.2897 6.58558L8.70841 13.1668C8.46274 12.6307 8.33487 12.0482 8.33341 11.4585C8.33341 10.4825 8.68237 9.59704 9.24487 8.88662C6.75321 9.73245 4.85529 11.371 3.77196 12.5002C4.69481 13.463 5.73816 14.3026 6.87612 14.9981L5.36258 16.5116C2.60112 14.7189 1.04175 12.5002 1.04175 12.5002ZM23.9584 12.5002C23.9584 12.5002 19.5959 18.7502 12.5001 18.7502C11.5147 18.7502 10.5876 18.621 9.71258 18.4137L5.20841 22.9168L3.64591 21.3543L21.3542 3.646L22.9167 5.2085L19.6386 8.48662C22.397 10.2804 23.9584 12.5002 23.9584 12.5002ZM21.2345 12.5064C20.31 11.5409 19.2641 10.6995 18.123 10.0033L16.6667 11.4585C16.6667 12.5636 16.2278 13.6234 15.4464 14.4048C14.665 15.1862 13.6051 15.6252 12.5001 15.6252L11.5136 16.6116C11.8365 16.6439 12.1636 16.6668 12.5001 16.6668C16.6438 16.6668 19.7324 14.0856 21.2345 12.5064Z" fill="#545454"/>
</svg>
