<svg width="35" height="35" viewBox="0 0 35 35" fill="none" xmlns="http://www.w3.org/2000/svg">
<path fill-rule="evenodd" clip-rule="evenodd" d="M30.625 26.2501C31.0118 26.2501 31.3827 26.4037 31.6562 26.6772C31.9297 26.9507 32.0833 27.3216 32.0833 27.7084C32.0833 28.0952 31.9297 28.4661 31.6562 28.7396C31.3827 29.0131 31.0118 29.1667 30.625 29.1667H2.91666C2.52988 29.1667 2.15895 29.0131 1.88546 28.7396C1.61197 28.4661 1.45832 28.0952 1.45832 27.7084C1.45832 27.3216 1.61197 26.9507 1.88546 26.6772C2.15895 26.4037 2.52988 26.2501 2.91666 26.2501H30.625ZM17.5 7.29175C22.2017 7.29175 26.1654 8.85946 28.9742 11.0674C31.7319 13.2345 33.5417 16.1657 33.5417 18.9584C33.5417 20.1863 33.1654 21.2334 32.5019 22.0792C31.8558 22.9047 30.9939 23.4647 30.116 23.8497C28.3864 24.6051 26.3287 24.7917 24.7917 24.7917H4.36624C3.98368 24.7916 3.60492 24.7159 3.25163 24.5692C2.89834 24.4224 2.57746 24.2074 2.30736 23.9365C2.03726 23.6656 1.82324 23.3441 1.67755 22.9904C1.53186 22.6366 1.45736 22.2576 1.45832 21.8751V10.2084C1.45832 8.60279 2.75624 7.29175 4.37207 7.29175H17.5ZM10.2083 10.2084H4.37499V14.5834H10.2083V10.2084ZM17.5 10.2084H13.125V14.5834H18.9583V10.2667C18.6371 10.2407 18.3151 10.2237 17.9929 10.2157L17.5 10.2084ZM21.875 10.767V14.5834H28.5119C28.0967 14.1423 27.6487 13.7333 27.1717 13.3599C25.7687 12.2574 23.9779 11.3255 21.875 10.767Z" fill="#F15A23"/>
</svg>
