<svg width="25" height="25" viewBox="0 0 25 25" fill="none" xmlns="http://www.w3.org/2000/svg">
<path d="M12.5001 6.25C5.40425 6.25 1.04175 12.5 1.04175 12.5C1.04175 12.5 5.40425 18.75 12.5001 18.75C19.5959 18.75 23.9584 12.5 23.9584 12.5C23.9584 12.5 19.5959 6.25 12.5001 6.25ZM12.5001 16.6667C8.39279 16.6667 5.2855 14.0792 3.77196 12.5C4.85529 11.3698 6.75321 9.73229 9.24487 8.88646C8.6581 9.61553 8.33669 10.5225 8.33341 11.4583C8.33341 12.5634 8.7724 13.6232 9.5538 14.4046C10.3352 15.186 11.395 15.625 12.5001 15.625C13.6051 15.625 14.665 15.186 15.4464 14.4046C16.2278 13.6232 16.6667 12.5634 16.6667 11.4583C16.6635 10.5225 16.3421 9.61553 15.7553 8.88646C18.248 9.73229 20.147 11.3708 21.2282 12.5C19.7126 14.0812 16.6063 16.6667 12.5001 16.6667Z" fill="#545454"/>
</svg>
